<svg width="30" height="30" viewBox="0 0 30 30" fill="none" xmlns="http://www.w3.org/2000/svg">
<path d="M15.009 24.3515C15.009 24.88 14.7037 25.3601 14.2258 25.5842C14.041 25.6716 13.8431 25.7139 13.6464 25.7139C13.3349 25.7139 13.0263 25.6068 12.777 25.4001L5.32911 19.2285H1.36235C0.610073 19.2291 0 18.6187 0 17.8664V12.4387C0 11.6861 0.610073 11.076 1.36235 11.076H5.32943L12.7774 4.90431C13.1843 4.56703 13.7486 4.49512 14.2261 4.72084C14.7037 4.94494 15.0094 5.42539 15.0094 5.95356L15.009 24.3515ZM20.2446 22.2227C20.2114 22.225 20.1795 22.2263 20.1466 22.2263C19.7868 22.2263 19.4398 22.0841 19.1835 21.8274L19.0013 21.6446C18.5234 21.1677 18.4673 20.4122 18.8697 19.8698C19.8899 18.4942 20.4284 16.8636 20.4284 15.153C20.4284 13.3131 19.8171 11.5874 18.6601 10.1622C18.2197 9.62045 18.2603 8.83367 18.7539 8.34033L18.9358 8.15814C19.208 7.886 19.5726 7.73767 19.9673 7.76121C20.3517 7.78055 20.7106 7.96145 20.9543 8.25939C22.5592 10.2231 23.4069 12.6073 23.4069 15.1533C23.4069 17.5246 22.6572 19.7818 21.2384 21.6797C21.0014 21.996 20.639 22.1947 20.2446 22.2227ZM25.8772 26.4329C25.6308 26.7241 25.2745 26.8989 24.8931 26.915C24.8743 26.9156 24.8553 26.9163 24.836 26.9163C24.4752 26.9163 24.1289 26.7738 23.8725 26.5174L23.6935 26.3385C23.1934 25.8387 23.1596 25.0393 23.6142 24.4982C25.8114 21.8851 27.0219 18.5665 27.0219 15.153C27.0219 11.6025 25.7259 8.18458 23.3737 5.52889C22.8968 4.98976 22.921 4.17364 23.4285 3.66417L23.6071 3.48521C23.8722 3.21887 24.2166 3.07216 24.6116 3.08473C24.9866 3.09537 25.3413 3.26111 25.5905 3.54164C28.4339 6.74291 30 10.867 30 15.153C30.0006 19.2768 28.5364 23.2829 25.8772 26.4329Z" fill="#FF6652"/>
</svg>
