<svg width="30" height="30" viewBox="0 0 30 30" fill="none" xmlns="http://www.w3.org/2000/svg">
<path d="M16.3385 8.23552C15.5944 8.97801 14.3884 8.97801 13.6443 8.23552C12.9005 7.49303 12.9005 6.28911 13.6443 5.54662C14.3884 4.80412 15.5944 4.80412 16.3385 5.54662C17.0824 6.28911 17.0824 7.49303 16.3385 8.23552Z" fill="#D97356"/>
<path d="M18.9407 11.1168C18.7086 11.1168 18.4765 11.0283 18.2998 10.8509C17.9464 10.497 17.9471 9.92369 18.3009 9.57052C19.018 8.85481 19.4129 7.90335 19.4129 6.89146C19.4129 5.87957 19.018 4.92811 18.3009 4.2124C17.9471 3.85901 17.9464 3.28589 18.2998 2.93181C18.653 2.57795 19.2263 2.57727 19.5802 2.93066C20.6401 3.98855 21.2238 5.39503 21.2238 6.89146C21.2238 8.38766 20.6401 9.79437 19.5802 10.8523C19.4035 11.0287 19.1721 11.1168 18.9407 11.1168Z" fill="#D97356"/>
<path d="M20.989 13.7824C20.7569 13.7824 20.5248 13.6938 20.3481 13.5167C19.9947 13.1626 19.9954 12.5895 20.3493 12.2361C21.7798 10.8083 22.5678 8.9102 22.5678 6.89123C22.5678 4.87227 21.7798 2.97415 20.3493 1.54638C19.9954 1.19299 19.9947 0.61987 20.3481 0.265789C20.7015 -0.0880618 21.2747 -0.0887485 21.6285 0.264645C23.4019 2.03459 24.3788 4.38795 24.3785 6.89123C24.3785 9.39451 23.4019 11.7481 21.6285 13.518C21.4518 13.6943 21.2204 13.7824 20.989 13.7824Z" fill="#D97356"/>
<path d="M11.0372 11.116C10.8058 11.116 10.5744 11.0278 10.3975 10.8514C9.33756 9.79348 8.75391 8.38677 8.75391 6.89057C8.75391 5.39414 9.33756 3.98766 10.3975 2.92977C10.7514 2.57638 11.3247 2.57683 11.6779 2.93091C12.0313 3.28477 12.0306 3.85811 11.6767 4.21151C10.9596 4.92722 10.5648 5.87868 10.5648 6.89057C10.5648 7.90246 10.9596 8.85392 11.6767 9.56963C12.0306 9.9228 12.0313 10.4961 11.6779 10.85C11.5012 11.0272 11.2691 11.116 11.0372 11.116Z" fill="#D97356"/>
<path d="M8.98936 13.7835C8.75773 13.7835 8.52633 13.6954 8.34963 13.5189C6.57625 11.749 5.59961 9.3956 5.59961 6.89232C5.59961 4.38881 6.57625 2.03545 8.34963 0.265507C8.70348 -0.0876575 9.27683 -0.0871997 9.63 0.26688C9.98339 0.620732 9.9827 1.19385 9.62885 1.54725C8.19834 2.97501 7.4103 4.87313 7.4103 6.89209C7.4103 8.91106 8.19834 10.8094 9.62885 12.2372C9.9827 12.5906 9.98339 13.1637 9.63 13.5178C9.4533 13.6949 9.22121 13.7835 8.98936 13.7835Z" fill="#D97356"/>
<path d="M26.9226 15.3477H3.05557C1.88576 15.3477 0.9375 16.2959 0.9375 17.4655V27.8817C0.9375 29.0515 1.88576 29.9997 3.05557 29.9997H26.9224C28.0922 29.9997 29.0405 29.0515 29.0405 27.8817V17.4655C29.0405 16.2959 28.0922 15.3477 26.9226 15.3477ZM7.90259 27.2822H4.56664C4.06677 27.2822 3.66142 26.8769 3.66142 26.3768V18.9706C3.66142 18.4707 4.06677 18.0652 4.56664 18.0652C5.06675 18.0652 5.4721 18.4705 5.4721 18.9706V25.4713H7.90259C8.40269 25.4713 8.80804 25.8767 8.80804 26.3768C8.80804 26.8769 8.40269 27.2822 7.90259 27.2822ZM11.6132 26.3768C11.6132 26.8769 11.2079 27.2822 10.7078 27.2822C10.2077 27.2822 9.8023 26.8769 9.8023 26.3768V18.9706C9.8023 18.4707 10.2077 18.0652 10.7078 18.0652C11.2079 18.0652 11.6132 18.4705 11.6132 18.9706V26.3768ZM19.2313 19.2325L16.9954 26.6384C16.9951 26.6391 16.9949 26.6397 16.9947 26.6404C16.7518 27.4692 15.5138 27.4488 15.2625 26.6404C15.2623 26.6397 15.262 26.6391 15.2618 26.6384L13.0259 19.2325C12.8814 18.7536 13.1522 18.2485 13.631 18.1038C14.1094 17.9594 14.615 18.2302 14.7594 18.709L16.1286 23.2438L17.4978 18.709C17.6424 18.2302 18.1475 17.9592 18.6264 18.1038C19.105 18.2485 19.3759 18.7536 19.2313 19.2325ZM24.8016 21.302C25.3017 21.302 25.707 21.7074 25.707 22.2075C25.707 22.7073 25.3017 23.1129 24.8016 23.1129H22.2322V25.4713H25.2893C25.7894 25.4713 26.1948 25.8767 26.1948 26.3768C26.1948 26.8769 25.7894 27.2822 25.2893 27.2822H21.3267C20.8266 27.2822 20.4213 26.8769 20.4213 26.3768V18.9706C20.4213 18.4707 20.8266 18.0652 21.3267 18.0652H25.4113C25.9112 18.0652 26.3168 18.4705 26.3168 18.9706C26.3168 19.4707 25.9112 19.8761 25.4113 19.8761H22.2319V21.302H24.8016Z" fill="#D97356"/>
</svg>
