<svg width="30" height="30" viewBox="0 0 30 30" fill="none" xmlns="http://www.w3.org/2000/svg">
<path d="M15.0002 2.5C12.5758 2.50461 10.205 3.21414 8.17672 4.54217C6.1484 5.87021 4.55005 7.75943 3.57636 9.97971C2.60267 12.2 2.29565 14.6555 2.69272 17.0472C3.08978 19.4389 4.17378 21.6635 5.81268 23.45C6.98321 24.7188 8.40386 25.7314 9.98511 26.424C11.5663 27.1166 13.2739 27.4742 15.0002 27.4742C16.7265 27.4742 18.434 27.1166 20.0153 26.424C21.5965 25.7314 23.0172 24.7188 24.1877 23.45C25.8266 21.6635 26.9106 19.4389 27.3077 17.0472C27.7047 14.6555 27.3977 12.2 26.424 9.97971C25.4503 7.75943 23.852 5.87021 21.8236 4.54217C19.7953 3.21414 17.4246 2.50461 15.0002 2.5ZM15.0002 25C12.4108 24.9961 9.92383 23.9878 8.06268 22.1875C8.62774 20.8119 9.58897 19.6354 10.8243 18.8074C12.0595 17.9793 13.5131 17.5373 15.0002 17.5373C16.4873 17.5373 17.9408 17.9793 19.1761 18.8074C20.4114 19.6354 21.3726 20.8119 21.9377 22.1875C20.0765 23.9878 17.5896 24.9961 15.0002 25ZM12.5002 12.5C12.5002 12.0055 12.6468 11.5222 12.9215 11.1111C13.1962 10.7 13.5867 10.3795 14.0435 10.1903C14.5003 10.0011 15.003 9.95157 15.4879 10.048C15.9729 10.1445 16.4183 10.3826 16.7679 10.7322C17.1176 11.0819 17.3557 11.5273 17.4521 12.0123C17.5486 12.4972 17.4991 12.9999 17.3099 13.4567C17.1207 13.9135 16.8002 14.304 16.3891 14.5787C15.978 14.8534 15.4946 15 15.0002 15C14.3371 15 13.7013 14.7366 13.2324 14.2678C12.7636 13.7989 12.5002 13.163 12.5002 12.5ZM23.6377 20C22.5208 18.0897 20.8019 16.6038 18.7502 15.775C19.3866 15.0533 19.8013 14.1633 19.9445 13.2118C20.0877 12.2603 19.9533 11.2876 19.5574 10.4106C19.1615 9.5336 18.5209 8.78945 17.7126 8.26746C16.9042 7.74547 15.9624 7.46781 15.0002 7.46781C14.0379 7.46781 13.0961 7.74547 12.2878 8.26746C11.4795 8.78945 10.8389 9.5336 10.443 10.4106C10.0471 11.2876 9.91267 12.2603 10.0558 13.2118C10.199 14.1633 10.6137 15.0533 11.2502 15.775C9.19843 16.6038 7.47952 18.0897 6.36268 20C5.47261 18.4839 5.00233 16.7581 5.00018 15C5.00018 12.3478 6.05375 9.8043 7.92912 7.92893C9.80448 6.05357 12.348 5 15.0002 5C17.6523 5 20.1959 6.05357 22.0713 7.92893C23.9466 9.8043 25.0002 12.3478 25.0002 15C24.998 16.7581 24.5278 18.4839 23.6377 20Z" fill="#D97356"/>
</svg>
