<svg width="18" height="18" viewBox="0 0 18 18" fill="none" xmlns="http://www.w3.org/2000/svg">
<path d="M11.7824 9.53272C12.5177 8.95421 13.0544 8.16091 13.3178 7.26317C13.5812 6.36544 13.5583 5.40791 13.2522 4.52382C12.9461 3.63972 12.3721 2.87301 11.6099 2.33036C10.8478 1.7877 9.93546 1.49609 8.99988 1.49609C8.06429 1.49609 7.15196 1.7877 6.38982 2.33036C5.62768 2.87301 5.05363 3.63972 4.74753 4.52382C4.44144 5.40791 4.41851 6.36544 4.68195 7.26317C4.94538 8.16091 5.48208 8.95421 6.21738 9.53272C4.95743 10.0375 3.85809 10.8747 3.03654 11.9552C2.215 13.0356 1.70205 14.3187 1.55238 15.6677C1.54154 15.7662 1.55021 15.8659 1.57789 15.961C1.60558 16.0561 1.65173 16.1449 1.71371 16.2222C1.83889 16.3783 2.02096 16.4783 2.21988 16.5002C2.41879 16.5221 2.61825 16.4641 2.77437 16.3389C2.93049 16.2137 3.0305 16.0316 3.05238 15.8327C3.21706 14.3666 3.91614 13.0126 5.01604 12.0293C6.11594 11.046 7.53955 10.5025 9.01488 10.5025C10.4902 10.5025 11.9138 11.046 13.0137 12.0293C14.1136 13.0126 14.8127 14.3666 14.9774 15.8327C14.9978 16.017 15.0857 16.1872 15.2242 16.3105C15.3627 16.4337 15.542 16.5013 15.7274 16.5002H15.8099C16.0065 16.4776 16.1862 16.3782 16.3098 16.2237C16.4334 16.0691 16.491 15.872 16.4699 15.6752C16.3195 14.3224 15.8038 13.036 14.978 11.9539C14.1522 10.8718 13.0476 10.0348 11.7824 9.53272ZM8.99988 9.00022C8.40653 9.00022 7.82651 8.82427 7.33317 8.49462C6.83982 8.16498 6.4553 7.69644 6.22824 7.14827C6.00117 6.60009 5.94176 5.99689 6.05752 5.41494C6.17327 4.833 6.459 4.29845 6.87855 3.8789C7.29811 3.45934 7.83266 3.17362 8.41461 3.05786C8.99655 2.9421 9.59975 3.00151 10.1479 3.22858C10.6961 3.45564 11.1646 3.84016 11.4943 4.3335C11.8239 4.82685 11.9999 5.40687 11.9999 6.00022C11.9999 6.79587 11.6838 7.55893 11.1212 8.12154C10.5586 8.68415 9.79553 9.00022 8.99988 9.00022Z" fill="#5D5A6F"/>
</svg>
