<svg width="30" height="30" viewBox="0 0 30 30" fill="none" xmlns="http://www.w3.org/2000/svg">
<path d="M15 0C6.71572 0 0 6.71572 0 15C0 23.2842 6.71572 29.9999 15 29.9999C23.2842 29.9999 29.9999 23.2842 29.9999 15C29.9911 6.71942 23.2806 0.00885184 15 0ZM21.317 15.4779C21.2132 15.6862 21.0444 15.8551 20.836 15.9589V15.9643L12.2646 20.25C11.7353 20.5145 11.0918 20.2998 10.8272 19.7705C10.752 19.62 10.7133 19.4539 10.7142 19.2857V10.7143C10.714 10.1225 11.1934 9.64266 11.7852 9.64235C11.9516 9.64228 12.1158 9.68096 12.2646 9.75535L20.836 14.0411C21.3656 14.305 21.581 14.9483 21.317 15.4779Z" fill="#00C968"/>
</svg>
